<svg version="1.2" baseProfile="tiny-ps" xmlns="http://www.w3.org/2000/svg" viewBox="0 0 55 55" width="55" height="55">
	<title>body</title>
	<style>
		tspan { white-space:pre }
		.shp0 { fill: #262626 } 
	</style>
	<g id="body">
		<g id="services">
			<g id="wellozganized">
				<path id="icon" class="shp0" d="M46.11 18.53C45.61 17.75 45.03 17.03 44.36 16.36L39.48 11.49C38.81 10.82 38.09 10.23 37.31 9.74C38.01 8.16 39.39 4.82 39.95 1.85C40.14 0.81 41.48 0.52 42.09 1.37C43.15 2.82 44.19 4.68 43.88 6.08L51.11 3.18C52.09 2.79 53.06 3.77 52.67 4.74L49.76 11.96C51.16 11.65 53.03 12.69 54.48 13.75C55.33 14.37 55.03 15.71 54 15.9C51.03 16.45 47.69 17.83 46.11 18.53ZM42.17 33.7L31.89 27.81L37.05 36.82L18.25 47.39L11.5 43.75L14.58 49.45L5.42 54.59C4.91 54.87 4.4 55 3.91 55C1.76 55 0.01 52.61 1.25 50.41L13.02 29.47L21.37 34.53L15.56 24.96L20.91 15.45C22.92 11.87 26.58 9.97 30.29 9.97C33 9.97 35.73 10.99 37.86 13.11L42.73 17.99C47.23 22.49 46.77 29.73 42.17 33.7Z" />
			</g>
		</g>
	</g>
</svg>