<svg version="1.2" baseProfile="tiny-ps" xmlns="http://www.w3.org/2000/svg" viewBox="0 0 54 54" width="54" height="54">
	<title>body</title>
	<style>
		tspan { white-space:pre }
		.shp0 { fill: #262626 } 
	</style>
	<g id="body">
		<g id="services">
			<g id="domestic&amp;internationaldelivery">
				<path id="icon" class="shp0" d="M41.08 37.4C41.72 37.44 42.37 37.49 43 37.51C41.43 39.88 39.3 41.93 36.68 43.45C34.05 44.97 31.21 45.79 28.39 45.97C28.69 45.39 28.99 44.79 29.27 44.19C30.77 44.01 32.26 43.62 33.7 43.02C33.72 42.99 33.73 42.97 33.74 42.94C33.79 42.76 33.95 42.57 33.95 42.57L33.87 42.36L34.05 42.1C34.05 42.1 34.26 41.76 34.39 41.65C34.52 41.55 35.62 40.6 35.86 40.42C36.07 40.26 36.98 39.57 37.38 39.25C37.43 39.21 37.48 39.16 37.51 39.14C37.78 38.9 38.28 38.27 38.46 37.98C38.54 37.84 38.68 37.51 38.81 37.18L38.81 37.18C39.57 37.27 40.33 37.34 41.08 37.4ZM22.47 38.69C22.4 38.68 22.49 38.73 22.55 38.76C22.53 38.72 22.51 38.69 22.47 38.69ZM36.76 37.35C36.95 37.37 37.2 37.35 37.38 37.35L37.44 37.35C37.62 37.35 37.78 37.27 38.07 37.11L38.09 37.1L38.09 37.1C37.86 37.07 37.62 37.04 37.39 37.01C37.16 36.97 36.92 36.94 36.69 36.91C36.85 37.03 36.97 37.14 36.92 37.16C36.78 37.21 36.55 37.32 36.76 37.35ZM22.55 38.76C22.55 38.76 22.56 38.76 22.56 38.77C22.62 38.8 22.6 38.78 22.55 38.76ZM28.47 24.61C28.47 24.61 28.48 24.62 28.5 24.64C28.51 24.61 28.47 24.61 28.47 24.61ZM34.79 28.78L34.75 28.78L34.72 28.93C34.55 29.55 34.38 30.17 34.2 30.79C34.35 30.79 34.48 30.8 34.48 30.8C34.48 30.8 34.64 30.73 34.68 30.53C34.72 30.33 34.84 30.1 34.84 30.1C34.84 30.1 34.88 30.11 34.96 30.12C35 30.04 35.05 29.92 35.05 29.78C35.05 29.5 34.93 29.44 34.93 29.28C34.93 29.13 34.99 28.75 34.99 28.75L34.79 28.78ZM33.96 31.62L33.87 31.9L34 31.88C34 31.88 34.04 31.97 34.08 32.09C34.11 32.03 34.13 31.97 34.13 31.97C34.13 31.97 34.13 31.88 34.09 31.7C34.08 31.67 34.02 31.64 33.96 31.62ZM35.6 25.6L35.56 25.58C35.46 25.96 35.38 26.34 35.28 26.71C35.35 26.75 35.3 26.76 35.57 26.77C35.94 26.79 35.68 26.79 35.96 26.79C36.24 26.79 36.29 26.83 36.34 26.71C36.39 26.59 36.4 26.77 36.4 26.46C36.4 26.15 36.26 26.02 36.16 25.93C36.06 25.85 35.89 25.73 35.6 25.6ZM53.59 34C52.75 37.16 43.57 37.54 31.93 35.21C28.12 46.48 23.21 54.26 20.06 53.41C18.07 52.88 17.19 49.02 17.39 43.32C17.46 43.36 17.53 43.4 17.59 43.43C14.79 41.81 12.37 39.46 10.64 36.46C9.12 33.82 8.3 30.98 8.12 28.14C8.68 28.43 9.24 28.71 9.81 28.99C11.85 29.96 13.99 30.86 16.16 31.66L16.15 31.66L16.16 31.77L15.84 32.33L15.55 32.51L15.63 32.64L15.69 32.9L15.53 32.9C15.53 32.9 15.53 33.27 15.53 33.48C15.53 33.69 15.95 33.77 15.95 33.77L15.82 33.85C15.82 33.85 15.84 33.98 15.97 34.19C16.11 34.4 16.21 34.59 16.26 34.77C16.32 34.95 16.39 35.47 16.39 35.47C16.39 35.47 16.74 36.05 16.89 36.29C17.05 36.52 17.37 36.84 17.5 37.11C17.63 37.37 17.92 37.24 18.46 37.37C19.02 37.5 19.25 37.68 19.25 37.68C19.25 37.68 19.54 37.92 19.72 38.03C19.91 38.13 20.09 38.13 20.59 38.13C21.06 38.13 20.75 38.16 21.33 38.25L21.43 38.26C22.13 38.36 21.58 38.31 22.24 38.62L22.27 38.63C22.43 38.7 22.52 38.74 22.56 38.76C22.62 38.88 22.59 39.11 22.61 39.21C22.64 39.34 22.82 39.18 22.95 39.18C23.05 39.18 23.08 39.26 23.19 39.33C23.22 39.35 23.26 39.37 23.32 39.39C23.55 39.47 23.6 39.31 23.6 39.31L23.87 39.63L24.08 39.91L23.87 40.42L23.69 40.6C23.69 40.6 23.72 40.36 23.69 40.17C23.66 39.99 23.5 40.26 23.5 40.26L23.35 40.76L23.92 41.31L24.09 41.47L24.47 41.81L24.49 41.88L24.71 42.5L24.68 42.71L24.81 43.05C24.81 43.05 24.64 43.12 24.49 43.15C24.44 43.17 24.38 43.18 24.34 43.18C24.26 43.18 24.17 43.27 24.09 43.36C24.01 43.46 23.95 43.57 23.95 43.57C23.95 43.57 24.01 43.69 24.09 43.81C24.15 43.89 24.21 43.97 24.29 44.02C24.32 44.05 24.36 44.06 24.39 44.09C24.42 44.09 24.44 44.1 24.47 44.11C24.47 44.12 24.46 44.13 24.45 44.14L24.45 44.14L24.46 44.14L24.38 44.27L24.38 44.27C24.15 44.67 23.86 45.15 23.53 45.67C21.62 45.29 19.76 44.62 18.03 43.68C18.04 43.69 18.04 43.69 18.04 43.69C18.09 47.13 18.74 49.37 20 49.7C22.38 50.34 26.24 43.98 29.43 34.67C28.09 34.37 26.73 34.04 25.35 33.66C10.74 29.74 -0.29 23.53 0.71 19.8C1.24 17.81 5.08 16.92 10.77 17.12C10.71 17.24 10.64 17.35 10.58 17.46C12.2 14.6 14.58 12.11 17.62 10.35C20.66 8.59 23.98 7.77 27.25 7.79C27.13 7.79 27.02 7.79 26.9 7.79C29.57 2.75 32.26 -0.14 34.24 0.39C37.96 1.39 37.81 14.07 33.9 28.71C33.53 30.1 33.14 31.45 32.73 32.77C42.37 34.65 49.79 34.48 50.44 32.09C50.78 30.83 49.17 29.16 46.22 27.39C46.22 27.38 46.22 27.37 46.22 27.37C46.17 29.34 45.81 31.29 45.18 33.14C44.57 33.17 44.01 33.18 43.55 33.18L43.55 33.18C43.18 33.18 42.89 33.17 42.72 33.16C42.23 33.14 41.73 33.12 41.23 33.09C41.32 32.78 41.4 32.55 41.41 32.42C41.44 32.26 41.53 32.02 41.53 32.02L40.94 31.88L40.87 31.5L40.63 31.45L40.4 31.89C40.4 31.89 40.22 32.16 40.02 32.27C39.82 32.38 39.55 32.4 39.55 32.4L39.61 32.09C39.5 32.04 39.27 32.13 39.27 32.13L39.25 31.84C39.25 31.84 39.12 31.54 39 31.52C38.89 31.5 38.71 31.25 38.71 31.25C38.71 31.25 38.64 31.16 38.57 30.98C38.57 30.97 38.56 30.97 38.55 30.96L38.59 30.8C38.59 30.8 38.8 30.57 38.98 30.36C39.15 30.15 39.21 30.57 39.39 30.72C39.57 30.87 39.51 31.11 39.51 31.11C39.51 31.11 39.63 31.17 39.78 31.17C39.93 31.17 39.99 31.29 39.99 31.29L40.29 31.4L40.59 31.07C40.59 31.07 40.65 30.86 40.86 30.86C41.07 30.86 40.89 31.13 40.89 31.29C40.89 31.44 41.04 31.29 41.46 31.11C41.88 30.93 41.69 30.96 42.08 30.74C42.47 30.54 42.27 30.6 42.41 30.48C42.57 30.36 42.68 30.24 42.68 30.24L43.01 30.45L43.37 30.39L43.73 30.18L43.73 30.45C43.73 30.45 43.49 30.75 43.64 30.96C43.79 31.17 43.82 31.11 43.73 31.38C43.64 31.65 43.7 31.65 43.73 31.8C43.76 31.91 43.76 31.92 43.76 31.99C45.12 27.53 44.71 22.54 42.2 18.19C41 16.1 39.43 14.36 37.63 12.99C37.68 12.32 37.72 11.66 37.75 11C40.11 12.58 42.15 14.71 43.67 17.34C45.41 20.36 46.22 23.65 46.22 26.91C46.22 26.82 46.22 26.73 46.22 26.64C51.23 29.32 54.12 32.01 53.59 34ZM30.74 13.22C30.74 13.22 30.93 13.11 31.03 13.07C31.12 13.03 31.03 13.02 30.93 12.95C30.84 12.89 30.72 13.01 30.72 13.01C30.72 13.01 30.66 13.06 30.61 13.18C30.61 13.19 30.6 13.2 30.6 13.21C30.55 13.27 30.49 13.11 30.48 13.02C30.46 12.93 30.12 12.99 30.13 12.99C30.14 12.99 30.21 13.16 30.21 13.16C30.21 13.16 30.24 13.33 30.24 13.39C30.24 13.46 30.24 13.58 30.29 13.66C30.34 13.74 30.49 13.87 30.49 13.87L30.6 13.8L30.64 13.77L30.8 13.5L30.93 13.38L30.74 13.22ZM28.6 12.03C28.6 12.03 28.62 11.84 28.73 11.86C28.83 11.88 28.94 11.61 28.94 11.61C28.94 11.61 28.85 11.44 28.75 11.44C28.64 11.44 28.41 11.47 28.41 11.47L28.35 11.34C28.35 11.34 28.22 11.32 28.05 11.38C27.88 11.44 27.84 11.3 27.84 11.3L27.82 11.04L27.59 11.11L27.42 10.96C27.42 10.96 27.36 10.83 27.46 10.83C27.56 10.83 27.71 10.85 27.71 10.85L27.92 10.7L27.84 10.54L27.98 10.37C27.98 10.37 27.69 10.22 27.63 10.33C27.56 10.43 27.33 10.52 27.33 10.52C27.33 10.52 27.35 10.45 27.23 10.29C27.1 10.12 27.29 10.03 27.02 10.1C26.85 10.13 26.72 10.21 26.65 10.27C26.59 10.31 26.55 10.35 26.55 10.35C26.55 10.35 26.26 10.41 26.24 10.52C26.22 10.62 26.6 10.68 26.6 10.68C26.6 10.68 26.62 10.65 26.65 10.63C26.7 10.57 26.8 10.48 26.87 10.56C26.98 10.66 27.06 10.79 27.06 10.79L26.66 11L26.65 10.99L26.45 10.83L26.05 10.83L25.86 10.92L25.48 10.96C25.48 10.96 25.55 11.15 25.55 11.25C25.55 11.36 25.38 11.47 25.38 11.47L25.15 11.45L25.13 11.44L24.89 11.61C24.89 11.61 24.64 11.63 24.53 11.71C24.52 11.73 24.5 11.74 24.48 11.74C24.38 11.77 24.28 11.7 24.28 11.84C24.28 12.01 24.3 12.09 24.18 12.12C24.15 12.12 24.12 12.13 24.08 12.14C23.95 12.17 23.78 12.2 23.78 12.2C23.78 12.2 23.65 12.26 23.55 12.37C23.45 12.47 23.21 12.54 23.21 12.54L23.18 12.53L22.79 12.45L22.25 12.68L22.23 12.72L22.12 12.98L21.76 13.02C21.76 13.02 21.46 13.17 21.44 13.28C21.43 13.33 21.38 13.38 21.33 13.41C21.28 13.45 21.23 13.47 21.23 13.47C21.23 13.47 21.02 13.55 20.92 13.63C20.81 13.71 20.69 13.88 20.69 13.88L20.6 14.07L20.75 14.29L20.41 14.33L20.45 14.49C20.62 14.66 20.73 14.75 20.83 14.66C20.93 14.58 20.87 14.51 21 14.47C21.07 14.44 21.21 14.4 21.32 14.36C21.4 14.33 21.48 14.3 21.52 14.28C21.63 14.24 21.8 14.09 21.92 14.09C22.05 14.09 22.17 14.07 22.17 14.07L22.22 14.03L22.51 13.8L22.85 13.95L23.12 13.91C23.12 13.91 23.12 13.98 23.17 14.03C23.19 14.05 23.21 14.06 23.25 14.07C23.37 14.11 23.56 14.11 23.56 14.11C23.56 14.11 23.67 13.97 23.82 13.97L24.08 13.97L24.19 13.97L24.23 13.78L24.47 13.89L24.51 13.9L24.7 14.05C24.7 14.05 24.61 14.07 24.82 14.16C24.95 14.21 25.07 14.19 25.14 14.17C25.19 14.15 25.22 14.13 25.22 14.13L25.58 14.22C25.58 14.22 25.6 13.88 25.5 13.88C25.39 13.88 25.18 13.78 25.18 13.78L25.41 13.69L25.67 13.65L25.73 13.93L26.13 13.8L26.07 13.57L26.09 13.21L26.47 13.27L26.49 13.52C26.49 13.52 26.56 13.56 26.64 13.57C26.73 13.6 26.82 13.6 26.82 13.52C26.82 13.37 26.74 13.27 26.85 13.27C26.95 13.27 27.16 13.21 27.16 13.21L27.26 13.06L27.41 12.72L27.58 12.97L27.81 12.82L27.77 12.61L28.27 12.38C28.27 12.38 28.57 12.34 28.7 12.34C28.82 12.34 28.86 12.3 28.86 12.3C28.86 12.3 28.95 12.13 28.82 12.13C28.7 12.13 28.6 12.03 28.6 12.03ZM23.57 20.2L23.36 20.3L23.85 20.53L24.08 20.54L24.26 20.55C24.26 20.55 24.39 20.34 24.41 20.13C24.42 20.03 24.45 19.99 24.48 19.96C24.53 19.93 24.59 19.9 24.69 19.84C24.85 19.71 24.81 19.67 24.77 19.54C24.74 19.45 24.57 19.46 24.48 19.47C24.45 19.47 24.43 19.48 24.43 19.48L24.08 19.65L24.05 19.67L23.89 19.45L23.65 19.52L23.42 19.75C23.4 19.73 23.57 19.77 23.57 19.77C23.57 19.77 23.63 19.75 23.8 19.77C23.97 19.8 23.76 19.94 23.76 19.94L23.42 20.03L23.57 20.2ZM24.37 15.26L24.08 15.28L24.08 15.28C24.08 15.28 24.02 15.58 24.08 15.76C24.09 15.77 24.09 15.78 24.1 15.79C24.16 15.91 24.28 16.03 24.48 16.06C24.57 16.07 24.66 16.07 24.77 16.04C24.96 16 25.02 15.99 25.03 15.99L25 16C25 16 25.04 15.99 25.03 15.99L25.16 15.94L25.32 15.87C25.32 15.87 25.59 15.71 25.59 15.56C25.59 15.41 25.36 15.46 25.17 15.46L25.16 15.46C24.98 15.45 25 15.43 24.92 15.22C24.83 15.01 24.83 15.35 24.83 15.35C24.83 15.35 24.75 15.33 24.67 15.14C24.58 14.95 24.56 14.8 24.56 14.8L24.49 14.84L24.25 14.97L24.31 15.09L24.37 15.26ZM24.16 21.31C24.16 21.31 24.24 21.42 24.37 21.59C24.42 21.66 24.46 21.64 24.48 21.59C24.52 21.52 24.54 21.42 24.6 21.42C24.7 21.42 24.62 21.59 24.75 21.57C24.88 21.55 25.15 21.55 25.15 21.55L25.16 21.55L25.34 21.76C25.34 21.76 25.55 21.65 25.57 21.55C25.59 21.44 25.59 21.44 25.76 21.44C25.93 21.44 25.86 21.42 26.07 21.25C26.29 21.09 26.01 20.94 25.84 20.85C25.67 20.77 25.82 20.62 25.82 20.62L25.84 20.32C25.84 20.32 25.84 20.22 25.82 20.07C25.8 19.92 25.76 19.82 25.73 19.67C25.71 19.52 25.57 19.56 25.57 19.56L25.57 19.37C25.57 19.37 25.88 19.37 25.99 19.33C26.09 19.29 25.99 19.08 25.99 19.08C25.99 19.08 25.74 18.98 25.55 18.91C25.36 18.85 25.48 18.81 25.8 18.79C26.11 18.77 25.84 18.62 25.84 18.62L25.59 18.47C25.59 18.47 25.46 18.64 25.25 18.72C25.21 18.74 25.18 18.76 25.15 18.78C25.08 18.86 25.13 18.94 25.06 19.04L25.06 19.21L25.15 19.36L25.21 19.46C25.21 19.46 25.19 19.55 25.15 19.64C25.13 19.69 25.11 19.74 25.08 19.78C25 19.9 25.13 20.05 25.13 20.05C25.13 20.05 25.13 20.33 25.08 20.48C25.04 20.62 24.72 20.35 24.72 20.35L24.66 20.71L24.48 20.71L24.37 20.71L24.41 20.9L24.48 20.95L24.6 21.05L24.72 21.24L24.48 21.15L24.37 21.11L24.16 21.31ZM20.86 11.8L20.5 12.18C20.5 12.18 20.81 12.24 20.92 12.22C20.98 12.21 21.15 12.09 21.33 11.97C21.46 11.88 21.59 11.8 21.68 11.74C21.91 11.59 22 11.63 22 11.63L22.08 11.8L21.58 12.1L22.17 12.01L22.24 11.95L22.46 11.74L22.7 11.46L23.05 11.48L23.19 11.43L23.49 11.32C23.49 11.32 23.75 11.15 23.85 10.96C23.93 10.81 23.99 10.89 24.09 10.92C24.12 10.93 24.15 10.93 24.19 10.92C24.36 10.88 24.28 10.73 24.28 10.58C24.28 10.51 24.37 10.5 24.5 10.5C24.62 10.5 24.76 10.52 24.82 10.47C24.95 10.38 24.72 10.22 24.55 10.17L24.5 10.16C24.36 10.13 24.29 10.11 24.28 9.98C24.26 9.91 24.18 9.88 24.09 9.89C24.01 9.89 23.92 9.92 23.86 9.96C23.73 10.05 23.48 10.07 23.56 9.9C23.57 9.87 23.59 9.87 23.6 9.85C22.95 9.98 22.3 10.16 21.65 10.38C21.8 10.37 21.86 10.38 21.96 10.38C22.08 10.38 21.83 10.53 21.83 10.53C21.83 10.53 21.45 10.66 21.35 10.75L21.33 10.76C21.24 10.84 21.29 10.98 21.29 10.98C21.29 10.98 21.31 10.98 21.33 10.98C21.4 10.98 21.52 10.97 21.6 10.96C21.7 10.93 21.79 10.89 22.06 10.72C22.15 10.67 22.2 10.64 22.24 10.63C22.32 10.59 22.32 10.61 22.42 10.55C22.56 10.47 22.46 10.79 22.46 10.79L22.86 10.64L23.18 10.62L23.3 10.62L23.42 10.38L23.18 10.33L23.05 10.3L23.17 10.17L23.18 10.17C23.24 10.17 23.6 10.17 23.72 10.2C23.85 10.21 23.72 10.36 23.72 10.36L23.68 10.53L23.53 10.8C23.53 10.8 23.34 10.83 23.2 10.83L23.18 10.83C23.04 10.84 22.88 10.99 22.88 10.99L22.59 11.2L22.23 11.2L22.16 11.2L22.1 11.44L21.76 11.4C21.76 11.4 21.72 11.29 21.7 11.14C21.68 10.99 21.53 11.14 21.53 11.14C21.53 11.14 21.47 11.39 21.33 11.5C21.3 11.52 21.27 11.54 21.24 11.54C21.03 11.59 20.86 11.8 20.86 11.8ZM25.44 9.57C25.26 9.58 25.08 9.6 24.9 9.62C24.93 9.63 24.94 9.64 25 9.65C25.13 9.67 25.02 9.71 25.02 9.81C25.02 9.88 25.05 9.91 25.16 9.93C25.21 9.94 25.28 9.95 25.38 9.96C25.68 10 25.49 9.88 25.45 9.63C25.44 9.6 25.44 9.58 25.44 9.57ZM24.31 9.81C24.31 9.81 24.33 9.77 24.35 9.71C24.32 9.71 24.29 9.72 24.26 9.72C24.3 9.76 24.31 9.81 24.31 9.81ZM26.72 9.48C26.7 9.53 26.68 9.58 26.69 9.65C26.71 9.84 26.75 9.65 26.88 9.61C26.95 9.58 26.97 9.55 26.98 9.48C26.9 9.48 26.81 9.48 26.72 9.48ZM14.39 15.07L14.65 15.09L14.99 14.88L15.32 14.98L15.13 15.07C15.13 15.07 14.95 15.34 14.9 15.47C14.86 15.59 15.41 15.57 15.41 15.57C15.41 15.57 15.55 15.17 15.55 15C15.55 14.84 16 14.73 16 14.73L16.12 14.39L16.33 14.54C16.33 14.54 16.46 14.31 16.44 14.2C16.41 14.1 16.04 14.07 16.04 14.07L16.41 13.89L16.79 13.99L16.71 14.73L17.08 14.73L17.17 14.86C17.17 14.86 16.64 15.15 16.54 15.15C16.44 15.15 16.2 15.43 16.2 15.43L15.99 15.66C15.99 15.66 16.08 15.79 16.24 15.83C16.41 15.87 16.41 15.97 16.41 15.97C16.41 15.97 16.64 15.89 16.64 15.76C16.64 15.64 16.56 15.6 16.56 15.6C16.56 15.6 16.74 15.38 16.87 15.24C17 15.09 17.67 14.79 17.8 14.65C17.92 14.5 17.84 14.4 17.84 14.4L18.15 14.2C18.15 14.2 18.24 13.8 18.28 13.7C18.32 13.6 18.76 13.38 19.08 13.15C19.39 12.92 19.44 12.9 19.85 12.79C20.28 12.69 19.98 12.64 19.96 12.52C19.94 12.39 19.6 12.68 19.6 12.68L19.1 12.53C19.1 12.53 19.31 12.53 19.52 12.37C19.73 12.2 19.68 12.33 19.83 12.26C19.98 12.2 19.94 12.14 19.94 12.14L20.17 12.14C20.17 12.14 20.36 11.95 20.47 11.78C20.57 11.61 20.8 11.29 20.8 11.29C20.8 11.29 20.28 11.59 20.17 11.63C20.07 11.67 19.9 11.59 19.77 11.59C19.64 11.59 19.46 11.8 19.24 11.88C19.03 11.97 18.8 12.1 18.8 12.1L18.49 12.03L18.24 12.14L17.63 12.39C17.63 12.39 17.73 12.31 17.99 12.16C18.24 12.01 18.49 11.86 18.49 11.86L18.89 11.76L18.92 11.55C18.76 11.64 18.6 11.72 18.44 11.81C16.9 12.71 15.54 13.82 14.39 15.07ZM30.22 32.24C30.65 30.89 31.05 29.49 31.44 28.05C34.85 15.31 35.24 4.34 32.32 3.56C31.07 3.22 29.4 4.83 27.64 7.79C27.61 7.79 27.6 7.79 27.58 7.79C29.56 7.84 31.51 8.19 33.37 8.84C33.41 9.45 33.41 10.01 33.41 10.46C33.41 10.46 33.41 10.46 33.41 10.46C33.41 10.83 33.4 11.13 33.4 11.3C33.34 12.9 33.19 14.54 32.98 16.19C32.91 16.16 32.82 16.14 32.74 16.13C32.51 16.12 32.51 16.13 32.51 16.13C32.51 16.13 32.32 15.97 32.25 15.86C32.18 15.74 32.04 15.65 31.78 15.56C31.52 15.47 31.54 15.66 31.54 15.66C31.54 15.66 31.29 15.83 30.98 15.8C30.68 15.77 30.6 16.1 30.6 16.13L30.6 16.13L30.37 16.32C30.37 16.32 30.25 16.53 30.11 16.53C29.97 16.53 29.87 16.57 29.87 16.57C29.87 16.57 29.8 16.83 29.8 16.97C29.8 17.11 29.66 17.13 29.66 17.13C29.66 17.13 29.48 17.16 29.36 17.21C29.24 17.26 29.12 17.34 29 17.4C28.87 17.47 28.93 17.53 28.68 17.67C28.44 17.8 28.35 17.86 28.35 17.86L28.02 17.93L28.19 18.1L27.93 18.15C27.93 18.15 27.91 18.31 27.95 18.43C27.98 18.55 28.25 18.57 28.25 18.57C28.25 18.57 28.08 18.71 27.86 18.8C27.66 18.89 27.66 18.92 27.67 19.01C27.69 19.1 27.81 19.29 28.16 19.38C28.51 19.47 28.26 19.36 28.42 19.27C28.58 19.18 28.75 19.13 28.75 19.13C28.75 19.13 28.96 19.48 28.96 19.64C28.96 19.79 28.91 20.09 28.93 20.2C28.95 20.3 29.12 20.16 29.12 20.16L28.96 20.34C28.96 20.34 29 20.65 29 20.74C29 20.83 29.31 20.77 29.31 20.69C29.31 20.6 29.48 20.46 29.74 20.44C30 20.43 29.97 20.39 29.97 20.18C29.97 19.97 30.02 19.69 30.02 19.69L30.32 19.61C30.32 19.61 30.49 19.48 30.6 19.37C30.63 19.34 30.65 19.32 30.67 19.29C30.7 19.24 30.66 19.18 30.6 19.13C30.54 19.08 30.48 19.04 30.44 19C30.35 18.91 30.32 18.63 30.32 18.46C30.32 18.28 30.32 18.35 30.34 18.23C30.35 18.12 30.48 18.11 30.6 18.08C30.61 18.08 30.62 18.08 30.63 18.07C30.75 18.04 30.91 17.83 31.13 17.72C31.36 17.61 31.01 17.6 31.01 17.6C31.01 17.6 31.05 17.41 31.08 17.25C31.12 17.09 31.57 17.3 31.57 17.3L31.74 17.51L31.53 17.67L31.29 18.03L30.95 18.49L31.23 19.22C31.23 19.22 31.47 19.34 31.62 19.32C31.79 19.3 31.96 19.22 32.06 19.13C32.1 19.09 32.33 19.03 32.57 18.98L32.49 19.47C32.41 19.5 32.32 19.43 32.12 19.43C31.85 19.43 31.78 19.56 31.53 19.58C31.28 19.61 31.43 19.78 31.43 19.9C31.43 20.03 31.78 20.18 31.78 20.18L31.51 20.35C31.51 20.35 31.38 20.08 31.14 20.1C30.9 20.13 30.99 20.45 30.84 20.57C30.69 20.69 30.94 21.07 30.94 21.07C30.94 21.07 30.76 21.09 30.6 21.18C30.58 21.19 30.56 21.2 30.54 21.21C30.37 21.33 30.32 21.24 30.32 21.24C30.32 21.24 30.22 21.09 30.1 21.09C29.98 21.09 29.8 21.29 29.68 21.33C29.55 21.38 29.13 21.33 29.13 21.33L28.86 21.04L28.64 21.26C28.64 21.26 28.44 21.21 28.32 21.06C28.2 20.91 28.32 20.94 28.29 20.82C28.27 20.69 28.22 20.69 28.22 20.69L28.34 20.5L28.66 20.3C28.66 20.3 28.73 19.86 28.59 19.66C28.44 19.46 28.44 19.86 28.44 19.86L27.94 20.18L27.97 20.84L27.87 21.14L27.68 21.09L27.55 21.24C27.55 21.24 27.43 21.17 27.23 21.09C27.04 21.02 26.69 21.34 26.69 21.34L26.65 21.45L26.57 21.63L26.3 21.58L26.15 21.76C26.15 21.76 25.98 21.76 25.85 21.76C25.72 21.76 25.8 21.98 25.8 21.98C25.8 21.98 25.72 22.08 25.62 22.12L25.58 22.06C25.43 22.04 25.4 22.06 25.31 22.13C25.27 22.16 25.21 22.18 25.15 22.2C25.08 22.21 25.02 22.22 25.02 22.22L24.89 21.9C24.89 21.9 24.8 21.73 24.72 21.86C24.63 21.99 24.66 22.08 24.66 22.08L24.7 22.3L24.52 22.32L24.48 22.3L24.39 22.28L24.08 22.09L24.04 22.06C24.04 22.06 23.82 22.03 23.86 22.17C23.89 22.31 24.07 22.49 24.07 22.58C24.07 22.59 24.08 22.6 24.09 22.61C24.14 22.67 24.4 22.65 24.4 22.76C24.4 22.89 24.23 23.04 24.23 23.04C24.23 23.04 24.36 23.14 24.36 23.31C24.36 23.47 24.32 23.7 24.29 23.81C24.25 23.91 24.16 23.88 24.13 23.99C24.12 24.02 24.1 24.04 24.08 24.07C24.03 24.17 23.95 24.26 23.95 24.26C23.95 24.26 23.68 24.33 23.59 24.29C23.49 24.26 23.42 24.13 23.26 24.09C23.23 24.08 23.2 24.08 23.17 24.09C23.11 24.1 23.1 24.13 22.94 24.02C22.72 23.88 22.65 23.82 22.51 23.77C22.37 23.72 22.29 23.59 22.29 23.59C22.29 23.59 22.26 23.57 22.23 23.55C22.16 23.52 22.06 23.47 22.01 23.47C21.92 23.47 21.77 23.63 21.77 23.63C21.77 23.63 21.81 23.77 21.77 23.95C21.74 24.13 21.81 24.22 21.7 24.29C21.6 24.37 21.58 24.31 21.56 24.46C21.54 24.6 21.63 24.53 21.49 24.67C21.36 24.8 21.42 24.8 21.32 24.87C21.31 24.87 21.3 24.88 21.29 24.89C21.14 24.98 21.09 24.96 21 25.11C20.91 25.25 20.88 25.41 20.88 25.54C20.88 25.66 21.27 26.11 21.27 26.11C21.27 26.11 21.29 26.12 21.32 26.13C21.39 26.15 21.49 26.19 21.49 26.28C21.49 26.41 21.34 26.46 21.49 26.55C21.63 26.64 21.56 26.66 21.65 26.71C21.69 26.74 21.96 26.8 22.23 26.85C22.52 26.91 22.81 26.96 22.81 26.96L23.01 26.82L23.18 26.82L23.35 26.82L23.44 26.51L23.71 26.5L23.73 26.21C23.73 26.21 23.7 25.92 23.78 25.92C23.83 25.92 23.96 25.84 24.08 25.77C24.21 25.69 24.32 25.61 24.32 25.61C24.32 25.61 24.39 25.62 24.48 25.64C24.62 25.66 24.81 25.67 24.86 25.63C24.95 25.56 25.15 25.27 25.15 25.27C25.15 25.27 25.11 25.04 25.16 24.94C25.17 24.91 25.19 24.89 25.22 24.89C25.36 24.89 25.71 24.91 25.81 25.02C25.92 25.12 26.19 25.27 26.3 25.25C26.39 25.23 26.54 25.14 26.65 25.06L26.69 25.03C26.73 25 26.84 24.93 26.96 24.84C26.96 24.85 26.96 24.85 26.96 24.85C26.96 24.85 27.21 24.89 27.29 25.02C27.36 25.14 27.39 25.38 27.36 25.52C27.32 25.66 27.59 25.79 27.68 25.9C27.77 26 28.2 26.58 28.34 26.76C28.49 26.94 28.78 27.26 28.78 27.26L28.92 27.6L28.62 27.82C28.62 27.82 28.29 27.8 28.18 27.77C28.08 27.73 27.99 27.84 27.99 27.84C27.99 27.84 27.91 27.8 27.75 27.66C27.59 27.52 27.7 27.68 27.5 27.79C27.31 27.89 27.75 28.06 27.86 28.15C27.97 28.24 28.11 28.4 28.18 28.49C28.26 28.58 28.44 28.46 28.44 28.31C28.44 28.17 28.46 28.04 28.46 28.04L28.78 28.04L28.98 27.81L29.14 27.67L29.21 27.47L29.09 27.11C29.09 27.11 29.31 27.03 29.39 27.03C29.48 27.03 29.57 27.3 29.57 27.3L29.66 27.34C29.66 27.34 29.66 27.12 29.61 27.03C29.55 26.94 29.27 26.73 29.27 26.73C29.27 26.73 28.94 26.6 28.85 26.53C28.76 26.46 28.55 26.08 28.44 25.89C28.33 25.69 28.4 25.67 28.38 25.58C28.37 25.49 28.18 25.38 28.11 25.26C28.04 25.13 28.06 24.95 28.06 24.95C28.06 24.95 28.22 24.85 28.4 24.74C28.47 24.7 28.5 24.67 28.5 24.66C28.57 24.73 28.76 24.95 28.76 25.08C28.76 25.24 28.83 25.42 28.87 25.53C28.9 25.63 29.12 25.72 29.41 25.78C29.7 25.83 29.6 26.03 29.6 26.03C29.6 26.03 29.87 26.35 29.91 26.57C29.94 26.79 29.94 26.89 29.96 27.16C29.98 27.43 30.11 27.47 30.19 27.72C30.28 27.97 30.32 27.97 30.37 28.17C30.4 28.26 30.41 28.35 30.45 28.44C30.27 29.1 30.08 29.77 29.88 30.44C29.71 30.59 29.59 31.16 29.59 31.16C29.59 31.16 29.54 31.2 29.46 31.21L29.46 31.21L29.09 31.12L29.09 31.12C28.9 30.92 28.46 30.84 28.23 30.69C28 30.53 28 30.19 27.81 30.03C27.63 29.87 27.5 29.95 27.5 29.95C27.5 29.95 26.98 29.85 26.87 29.72C26.81 29.65 26.72 29.54 26.64 29.46C26.58 29.38 26.53 29.32 26.53 29.32C26.53 29.32 26.58 29.27 26.64 29.22C26.72 29.15 26.82 29.08 26.89 29.06C27.02 29.03 26.84 28.77 26.68 28.51C26.52 28.24 27.1 28.16 27.08 28.03C27.05 27.91 26.8 27.9 26.64 27.83L26.63 27.82C26.47 27.74 26.11 27.82 26.11 27.82L25.61 27.72C25.61 27.72 25.45 27.77 25.32 27.82C25.27 27.84 25.21 27.83 25.15 27.8C25.04 27.76 24.91 27.64 24.85 27.5C24.78 27.36 24.63 27.39 24.48 27.38C24.41 27.37 24.34 27.36 24.27 27.32C24.2 27.28 24.14 27.26 24.08 27.26C23.97 27.27 23.86 27.33 23.72 27.35C23.55 27.37 23.32 27.43 23.17 27.45C23.14 27.45 23.11 27.46 23.09 27.46C22.96 27.46 22.8 27.56 22.62 27.67C22.44 27.77 22.38 27.38 22.38 27.38C22.38 27.38 22.33 27.38 22.23 27.36C22.12 27.34 21.96 27.3 21.75 27.22C21.36 27.06 21.54 26.82 21.54 26.82C21.54 26.82 21.47 26.88 21.32 27.01C21.27 27.06 21.22 27.11 21.15 27.16C20.89 27.4 20.81 27.51 20.57 27.48C20.34 27.45 20.21 27.56 20.05 27.64C19.91 27.71 19.58 28.27 19.54 28.36C16.41 27.29 13.32 26.02 10.53 24.54C10.41 24.47 10.21 24.36 9.97 24.23C9.97 24.23 9.97 24.23 9.97 24.23C9.55 23.99 9 23.67 8.42 23.29C8.79 21.34 9.47 19.46 10.42 17.71C10.41 17.74 10.4 17.76 10.39 17.78C6.95 17.83 4.73 18.48 4.39 19.74C3.61 22.66 13.28 27.8 25.99 31.22C27.43 31.59 28.84 31.93 30.22 32.24ZM26.36 26.86C26.27 26.89 26.27 27.09 26.27 27.09C26.27 27.09 26.34 27.17 26.43 27.19C26.49 27.2 26.56 27.2 26.65 27.18C26.69 27.17 26.74 27.15 26.8 27.14C26.97 27.09 26.87 27 26.91 26.88C26.94 26.75 26.94 26.59 27.01 26.47C27.08 26.35 26.87 26.26 26.87 26.26C26.87 26.26 26.71 26.49 26.65 26.58L26.64 26.59C26.59 26.68 26.45 26.82 26.36 26.86ZM26.65 25.91C26.74 25.9 26.95 25.84 26.99 25.73C27.04 25.59 27.03 25.66 27.08 25.5C27.14 25.34 26.94 25.55 26.94 25.55L26.71 25.69L26.65 25.83L26.61 25.92C26.61 25.92 26.62 25.92 26.65 25.91Z" />
			</g>
		</g>
	</g>
</svg>