<svg version="1.2" baseProfile="tiny-ps" xmlns="http://www.w3.org/2000/svg" viewBox="0 0 55 49" width="55" height="49">
	<title>body</title>
	<style>
		tspan { white-space:pre }
		.shp0 { fill: #262626 } 
	</style>
	<g id="body">
		<g id="services">
			<g id="qualityproduct">
				<path id="icon" class="shp0" d="M28.57 19.55C28.51 19.63 28.43 19.68 28.37 19.75C28.4 18.96 28.42 18.15 28.39 17.34C28.39 16.62 28.29 15.91 28.23 15.2C28.16 14.5 27.99 13.82 27.88 13.16C27.71 12.51 27.5 11.89 27.33 11.3C27.07 10.74 26.84 10.21 26.62 9.72C26.33 9.27 26.07 8.86 25.83 8.49C25.62 8.11 25.31 7.87 25.11 7.63C24.7 7.17 24.45 6.92 24.45 6.92C24.45 6.92 24.68 7.19 25.06 7.68C25.23 7.93 25.53 8.18 25.7 8.57C25.91 8.95 26.14 9.37 26.39 9.83C26.56 10.33 26.76 10.86 26.96 11.42C27.09 12.01 27.25 12.62 27.36 13.26C27.42 13.91 27.55 14.58 27.56 15.26C27.57 15.95 27.62 16.64 27.56 17.34C27.54 18.33 27.42 19.31 27.28 20.26C26.75 19.84 25.27 18.15 24.62 17.43C23.89 16.61 23.18 15.65 22.6 14.62C21.98 13.59 21.53 12.48 21.18 11.36C20.47 9.12 20.43 6.84 20.59 4.9C20.68 3.91 20.76 3 20.73 2.25C20.69 1.91 20.69 1.54 20.64 1.33C20.59 1.1 20.56 0.98 20.56 0.98C20.56 0.98 20.68 0.94 20.91 0.87C21.13 0.81 21.51 0.69 21.94 0.7C22.82 0.67 24.08 0.96 25.3 1.62C26.52 2.28 27.68 3.29 28.6 4.49C29.54 5.68 30.21 7.07 30.65 8.49C31.07 9.92 31.27 11.4 31.16 12.81C31.09 14.22 30.77 15.57 30.28 16.73C29.79 17.89 29.17 18.87 28.57 19.55ZM23.49 21.64C23.51 21.55 23.5 21.46 23.51 21.37C23.97 21.95 24.38 22.53 24.76 23.09C25.5 22.98 26.26 22.92 27.04 22.92C27.13 22.92 27.22 22.94 27.31 22.94C27.42 22.44 27.52 21.93 27.62 21.4C27.68 21.03 27.94 20.13 28.11 20.01C28.21 19.93 28.28 19.84 28.37 19.75C28.32 20.89 28.2 21.98 28.06 23C28.33 23.02 28.6 23.03 28.86 23.06C29.29 22.41 29.78 21.72 30.32 21.04C30.32 21.13 30.32 21.22 30.34 21.32C30.38 21.47 30.08 22.11 29.93 22.35C29.77 22.61 29.63 22.87 29.49 23.12C34.81 23.99 39.19 27.64 41.11 32.53C40.76 32.29 40.41 32.06 40.08 31.84C37.38 30.08 34.05 29.94 30.25 31.46C28.93 31.99 27.63 32.07 26.36 31.68C23.95 30.95 21.56 30.89 19.31 30.88C17.81 30.88 16.57 31.48 15.71 32.61C15.5 32.89 15.38 33.22 15.35 33.57C14.19 33.36 13.52 33.25 13.07 33.25L12.71 33.21C14.44 28.1 18.81 24.22 24.19 23.2C24.09 23.02 24 22.86 23.9 22.68C23.75 22.44 23.45 21.8 23.49 21.64ZM31.51 19.65C31.09 20.11 30.7 20.57 30.32 21.04C30.32 20.97 30.31 20.9 30.31 20.83C30.3 20.14 30.44 19.27 30.73 18.36C31.04 17.46 31.53 16.54 32.18 15.7C32.83 14.84 33.68 14.09 34.63 13.49C35.59 12.89 36.66 12.44 37.79 12.23C38.91 12 40.08 12.01 41.1 12.24C42.12 12.47 42.98 12.93 43.47 13.39C43.72 13.59 43.88 13.85 43.98 13.99C44.07 14.15 44.12 14.24 44.12 14.24C44.12 14.24 44.04 14.29 43.9 14.39C43.77 14.49 43.58 14.7 43.39 14.88C43 15.29 42.59 15.84 42.15 16.45C41.28 17.64 40.12 18.92 38.6 19.84C37.84 20.3 37.03 20.71 36.17 20.99C35.32 21.29 34.44 21.48 33.62 21.58C32.88 21.67 31.2 21.89 30.68 21.87C31.08 21.26 31.5 20.64 31.98 20.07C32.3 19.64 32.67 19.27 33.02 18.89C33.37 18.5 33.77 18.18 34.13 17.84C34.51 17.53 34.9 17.26 35.27 16.99C35.67 16.77 36.05 16.56 36.39 16.37C36.76 16.24 37.1 16.11 37.41 16C37.7 15.86 37.99 15.86 38.22 15.8C38.68 15.72 38.94 15.67 38.94 15.67C38.94 15.67 38.68 15.7 38.21 15.75C37.98 15.79 37.69 15.77 37.38 15.89C37.06 15.98 36.7 16.08 36.31 16.2C35.94 16.37 35.55 16.55 35.12 16.74C34.73 16.99 34.3 17.24 33.88 17.53C33.49 17.85 33.05 18.15 32.66 18.52C32.28 18.89 31.86 19.25 31.51 19.65ZM9.92 14.72C9.78 14.62 9.71 14.56 9.71 14.56C9.71 14.56 9.76 14.48 9.85 14.32C9.94 14.18 10.1 13.92 10.35 13.72C10.84 13.26 11.71 12.8 12.73 12.56C13.75 12.33 14.92 12.33 16.03 12.56C17.17 12.77 18.24 13.22 19.2 13.82C20.15 14.42 21 15.17 21.64 16.03C22.3 16.86 22.79 17.79 23.09 18.69C23.39 19.6 23.53 20.47 23.52 21.15C23.52 21.23 23.51 21.3 23.51 21.37C23.13 20.9 22.74 20.43 22.32 19.98C21.96 19.57 21.55 19.22 21.16 18.85C20.77 18.48 20.33 18.18 19.94 17.86C19.52 17.57 19.1 17.32 18.71 17.07C18.28 16.88 17.88 16.69 17.51 16.52C17.12 16.41 16.77 16.3 16.45 16.21C16.14 16.1 15.85 16.12 15.61 16.08C15.15 16.03 14.88 16 14.88 16C14.88 16 15.15 16.05 15.61 16.13C15.83 16.19 16.12 16.19 16.42 16.32C16.72 16.44 17.06 16.56 17.44 16.7C17.78 16.89 18.16 17.1 18.55 17.32C18.92 17.59 19.31 17.86 19.7 18.17C20.06 18.51 20.46 18.83 20.81 19.21C21.15 19.6 21.53 19.97 21.84 20.39C22.32 20.97 22.75 21.58 23.14 22.2C22.63 22.22 20.95 22 20.21 21.91C19.39 21.81 18.51 21.62 17.66 21.32C16.8 21.04 15.98 20.63 15.23 20.17C13.71 19.24 12.55 17.97 11.67 16.78C11.23 16.17 10.83 15.62 10.43 15.21C10.25 15.03 10.06 14.82 9.92 14.72ZM54.33 48.27L40.78 48.3C38.62 44.59 35.42 42.9 31.2 42.92C28.8 42.94 26.4 42.84 24.01 42.95C21.9 43.05 19.94 42.73 18.09 41.69C17.22 41.2 16.24 41.04 15.28 40.82C12.94 40.29 10.67 39.59 8.33 39.01C5.05 38.2 4.27 37.73 1.85 36.77C1.45 36.62 0.97 36.74 0.78 36.25C0.6 35.78 0.57 35.29 0.91 34.89C1.5 34.19 2.09 33.86 3.14 33.92C3.22 33.92 3.32 33.92 3.38 33.88C5.27 32.82 5.27 33.54 7.19 33.7L12.61 34.39C13.56 34.32 20.72 36.06 21.13 35.24C18.91 35.24 16.33 33.51 16.65 33.09C17.21 32.35 18 32.02 18.95 32.02C21.16 32.03 23.33 32.1 25.5 32.75C27.12 33.24 28.8 33.16 30.49 32.49C33.24 31.38 36.2 31.02 38.8 32.71C42.01 34.8 45.05 37.15 47.37 40.3C50.07 43.97 51.38 44.81 54.33 48.27Z" />
			</g>
		</g>
	</g>
</svg>