<svg version="1.2" baseProfile="tiny-ps" xmlns="http://www.w3.org/2000/svg" viewBox="0 0 47 44" width="47" height="44">
	<title>body</title>
	<style>
		tspan { white-space:pre }
		.shp0 { fill: #262626 } 
	</style>
	<g id="body">
		<g id="services">
			<g id="onlineshopping">
				<path id="icon" class="shp0" d="M45.56 8.28L41.8 23.96C41.62 24.7 40.96 25.23 40.19 25.23L19.89 25.23C19.17 25.23 18.53 24.76 18.31 24.08L13.32 8.47C13.06 7.66 13.2 6.77 13.7 6.08C14.2 5.4 15 4.99 15.85 4.99L42.97 4.99C43.79 4.99 44.56 5.37 45.06 6.01C45.57 6.65 45.75 7.49 45.56 8.28ZM46.85 30.61C46.85 31.95 45.76 33.04 44.42 33.04L18.24 33.04C15.19 33.04 12.52 31.09 11.59 28.2L4.38 5.84C4.35 5.75 4.26 5.68 4.15 5.68L2.58 5.68C1.24 5.68 0.15 4.59 0.15 3.25C0.15 1.91 1.24 0.82 2.58 0.82L4.15 0.82C6.37 0.82 8.32 2.24 9 4.35L16.21 26.71C16.49 27.59 17.31 28.18 18.24 28.18L44.42 28.18C45.76 28.18 46.85 29.27 46.85 30.61ZM23.83 39.71C23.83 41.85 22.09 43.58 19.96 43.58C17.82 43.58 16.09 41.85 16.09 39.71C16.09 37.57 17.82 35.84 19.96 35.84C22.09 35.84 23.83 37.57 23.83 39.71ZM44.16 39.71C44.16 41.85 42.42 43.58 40.29 43.58C38.15 43.58 36.42 41.85 36.42 39.71C36.42 37.57 38.15 35.84 40.29 35.84C42.42 35.84 44.16 37.57 44.16 39.71Z" />
			</g>
		</g>
	</g>
</svg>